<svg xmlns="http://www.w3.org/2000/svg" viewBox="0 0 1600 900">
  <defs>
    <linearGradient id="sky" x1="0" y1="0" x2="0" y2="1">
      <stop offset="0%" stop-color="#dcefe4"/>
      <stop offset="100%" stop-color="#f5f0e6"/>
    </linearGradient>
    <linearGradient id="ground" x1="0" y1="0" x2="1" y2="1">
      <stop offset="0%" stop-color="#456f3c"/>
      <stop offset="100%" stop-color="#2d5a27"/>
    </linearGradient>
  </defs>
  <rect width="1600" height="900" fill="url(#sky)"/>
  <circle cx="1260" cy="150" r="70" fill="#f0c978" opacity="0.95"/>
  <path d="M0 580C180 500 320 540 470 505C660 460 800 360 1020 415C1220 465 1380 400 1600 320V900H0Z" fill="#698f58"/>
  <path d="M0 680C180 640 420 690 650 600C850 520 1080 560 1280 500C1410 460 1510 420 1600 400V900H0Z" fill="url(#ground)"/>
  <path d="M160 650L260 470L360 650Z" fill="#1f4b1d"/>
  <rect x="240" y="650" width="40" height="110" fill="#55361c"/>
  <path d="M1220 620L1320 430L1420 620Z" fill="#1f4b1d"/>
  <rect x="1300" y="620" width="40" height="120" fill="#55361c"/>
  <rect x="645" y="500" width="310" height="180" rx="18" fill="#8b5a2b"/>
  <path d="M610 520L800 390L990 520Z" fill="#6c431e"/>
  <rect x="700" y="560" width="70" height="120" rx="10" fill="#f5f0e6"/>
  <rect x="805" y="560" width="95" height="55" rx="8" fill="#dfe9e4"/>
  <rect x="915" y="540" width="20" height="70" rx="8" fill="#3a2818"/>
  <text x="80" y="110" font-family="Poppins, Segoe UI, sans-serif" font-size="48" font-weight="700" fill="#2d5a27">Centre de Camping Outdoors</text>
  <text x="80" y="165" font-family="Poppins, Segoe UI, sans-serif" font-size="28" fill="#6c4b2c">Bni Mtir, Tunisie</text>
</svg>
